<?xml version="1.0" encoding="utf-8"?>
<!-- Generator: Adobe Illustrator 19.0.0, SVG Export Plug-In . SVG Version: 6.00 Build 0)  -->
<svg version="1.1" id="Layer_1" xmlns="http://www.w3.org/2000/svg" xmlns:xlink="http://www.w3.org/1999/xlink" x="0px" y="0px"
	 viewBox="0 0 500 500" style="enable-background:new 0 0 500 500;" xml:space="preserve">
<style type="text/css">
	.st0{fill:#010101;}
	.st1{fill:#FFFFFF;}
	.st2{fill:#F0BC94;}
	.st3{fill:#B62025;}
	.st4{fill:#0D9A48;}
	.st5{fill:none;}
	.st6{fill:#C87237;}
	.st7{fill:#27A149;}
</style>
<g id="XMLID_11_">
	<g id="XMLID_10_">
		<path id="XMLID_44_" d="M152.7,154.6c-0.4-3.1,7.4-4.8,7.9-1.8c2.5,16.3,6.2,44,6.3,45.1c0.2,1.7-4.8,3-5.5,0.8
			c-0.4-0.9-2.7-11.8-3.1-13.5c-0.7-0.1-11.5,1.9-13.7,2.3c0.3,2.9,1.3,12.7,1.5,13.9c0.2,1.7-5.2,2.3-5.5,1.1
			c-1.1-2.4-6.9-41.1-7.6-45.8c-0.3-1.9,7.5-3.6,7.8-1.3c0.6,5.3,2.7,24.9,2.9,26.3c2.7-0.4,9.7-1.7,13.3-2.3
			C157,178.8,153.1,157.4,152.7,154.6z"/>
		<path id="XMLID_46_" d="M185.4,196.6c-6.9,2-16.2-3.4-19.3-22.6c-1.4-8.8-1.3-19.4,5.5-24.3c2.3-2.2,8.6-3,10.6-0.8
			c7,2.1,9.8,10.5,11.5,20.8C195.5,181.2,196,193.7,185.4,196.6z M184.3,190.4c5.9-1.9,5-11.2,3.6-19.6c-2.4-15.1-6.9-16.3-9-16.4
			c-7.7,1.2-6.3,11.5-5.1,18.8C174.8,179.9,177.6,192.6,184.3,190.4z"/>
	</g>
	<g id="XMLID_12_">
		<path id="XMLID_30_" d="M134,227c0.7-3.1,8.6-2,8,0.9c-3.1,16.2-9,43.5-9.3,44.6c-0.4,1.6-5.5,1.2-5.5-1.1
			c0-0.9,1.4-12.1,1.7-13.7c-0.6-0.3-11.4-2.1-13.6-2.4c-0.8,2.9-3,12.4-3.3,13.6c-0.4,1.6-5.6,0.4-5.5-0.8
			c-0.2-2.6,7.4-41,8.3-45.7c0.3-1.9,8.3-0.9,7.8,1.5c-1.2,5.2-5.9,24.4-6.1,25.8c2.7,0.5,9.7,1.7,13.3,2.4
			C129.8,251.3,133.4,229.9,134,227z"/>
		<path id="XMLID_36_" d="M150.5,277.7c-7.2-0.4-14.1-8.6-10.5-27.8c1.6-8.7,5.3-18.7,13.4-21c2.9-1.3,9.1,0.1,10.2,2.9
			c5.9,4.4,5.7,13.2,3.8,23.5C165.3,266.6,161.5,278.5,150.5,277.7z M151.6,271.5c6.2,0.2,8.5-8.9,10-17.2c2.8-15.1-1-17.7-2.9-18.4
			c-7.6-1.5-9.8,8.7-11.2,15.9C146.2,258.4,144.5,271.2,151.6,271.5z"/>
	</g>
	<g id="XMLID_13_">
		<path id="XMLID_14_" d="M125.8,303.7c0.1-3.2,8.1-3.6,8.1-0.6c-0.1,16.5-0.8,44.4-0.9,45.6c-0.1,1.7-5.2,2.2-5.6-0.1
			c-0.2-0.9-0.8-12.1-0.9-13.8c-0.7-0.2-11.6,0.1-13.9,0.1c-0.2,2.9-0.7,12.7-0.7,13.9c-0.1,1.7-5.5,1.5-5.6,0.2
			c-0.7-2.5-0.3-41.7-0.3-46.4c0-1.9,8-2.4,7.9,0c-0.2,5.3-1.3,25.1-1.3,26.5c2.7,0,9.9-0.1,13.5-0.1
			C126.2,328.3,125.7,306.6,125.8,303.7z"/>
		<path id="XMLID_16_" d="M151.4,350.4c-7.1,0.9-15.5-5.9-15.5-25.3c0-8.9,1.8-19.4,9.3-23.1c2.6-1.8,9-1.6,10.6,0.9
			c6.6,3.2,8.1,11.9,8.1,22.4C163.8,336.8,162.3,349.2,151.4,350.4z M151.3,344.1c6.1-0.9,6.7-10.3,6.7-18.8
			c0-15.3-4.3-17.2-6.3-17.6c-7.8-0.1-8.1,10.4-8.1,17.7C143.6,332.2,144.3,345.2,151.3,344.1z"/>
	</g>
	<g id="XMLID_1_">
		<path id="XMLID_3_" class="st0" d="M332.9,181c3.9-2.8,5.1-9,0.6-12.9c-4.8-4.5-14.6-4.5-18.8,1.1c-1.7-2-4.5-2.8-7-2
			c-3.1,0.8-5.1,3.6-5.3,6.7c-16.3-10.9-23.6-35.6-29.7-37.3c-4.5-1.4-65.4-0.6-78,94.6c-12.3,6.5-17.7,23-9.5,35.9
			c-11.2,2.8-16.3,18.2-6.7,29.7c-10.9,7.6-1.7,30.6,11.5,26.9c-0.3,19.6-0.3,18.5,0.8,18.8c0.3,0,0.6,0.3,0.8,0.3
			c-1.7,19.6,24.1,21.6,24.1,5.1c11.5,1.4,23.3,1.4,34.2,0c0.3,16.6,26.1,14.9,24.4-5.1c0.3,0,0.6-0.3,0.8-0.3
			c1.1-0.3,1.1,0.8,0.6-18.8c13.5,3.6,22.5-19.6,11.8-26.9c9.5-11.5,4.5-26.9-6.7-29.7c7.6-11.8,3.6-26.1-5.9-33.7c0,0,0,0,0-0.3
			c4.8-14.3,5.3-29.7,2-44.6c7.6,3.9,14.9,4.2,21.3,3.1c-2.8,7.9,10.4,15.4,18,4.2c4.2,3.6,10.7,4.5,15.4,0.8
			C336.8,192.5,336.8,184.4,332.9,181z"/>
		<path class="st1" d="M277.8,269.7c15.4,1.1,20.2,32.3-18.2,36.8c-1.1,0-2,1.4-0.8,2.5c8.1,9-0.6,23-12.6,29.2
			c-3.6,2-11.2,4.5-15.2,3.9c-23-3.6-33.7-23.6-24.7-33.1c0.8-1.1,0.3-2.5-0.8-2.5c-38.7-4.5-33.7-35.6-18.2-36.8
			c0.8-0.3,1.7-1.4,1.1-2.2c-12.9-16.8,2-39.3,21.3-36.2c0.8,3.4,3.4,6.7,7.9,9.3c10.1,6.2,25.8,5.1,34-3.1c2.2-2,3.4-4.2,3.9-6.2
			c19.9-3.1,33.7,19.9,21.3,36.2C275.9,268.3,277,269.4,277.8,269.7z M250.3,255.4c0.8-1.7-1.7-3.1-2.5-1.4
			c-5.9,11.2-24.7,11.2-30.6,0c-0.8-1.7-3.4-0.3-2.5,1.4C221.4,268.3,243.6,268.3,250.3,255.4z"/>
		<path id="XMLID_25_" class="st2" d="M252.3,227.3c2.2,5.1-4.8,10.7-9.8,12.6c-16.3,5.9-32.6-4.5-29.7-12.3c2-6.2,12.6-7,19.4-6.7
			c0.3,0,0.3,0,0.3,0c0.3,0,0.3,0,0.6,0C239.4,220.6,249.8,221.7,252.3,227.3z"/>
		<path id="XMLID_23_" class="st1" d="M328.9,182.4c4.2,0.8,4.2,6.7,2.5,9.8c-3.4,5.6-11.2,5.1-14.9,0.3c-0.8-0.6-2-0.6-2.2,0.3
			c-6.2,10.9-16.8,4.5-13.5-1.4c0,0,0.3-0.3,0.3-0.6c11.5-3.4,18.5-11.5,14-12.1c-3.6-0.3-7.3-1.4-10.4-3.1c0-0.3,0-0.3,0-0.6
			c-0.6-5.3,6.2-7.3,8.4-2.8c0.8,1.4,2.2,0.8,2.8-0.3c1.7-4.5,7.9-5.1,12.1-3.6c7.3,2.2,5.9,9.8,0.8,11.2
			C327.8,179.9,327.5,181.9,328.9,182.4z"/>
		<path id="XMLID_9_" class="st3" d="M271.1,343.8c0.8,15.4-18.8,16.8-18.5,3.9C258.7,346.9,264.9,345.5,271.1,343.8z"/>
		<path id="XMLID_8_" class="st3" d="M212.4,347.7c0.3,12.6-19.4,11.8-18.5-3.9C200.1,345.5,206.3,346.9,212.4,347.7z"/>
		<path id="XMLID_7_" class="st3" d="M190,305.4c0,6.2-0.3,11.2-0.3,15.4c-11.2,3.9-18.5-16-9.8-21.6
			C182.4,301.4,185.8,303.7,190,305.4z"/>
		<path id="XMLID_6_" class="st3" d="M285.1,299.2c9,5.6,1.4,25.5-9.8,21.6c0-4.2-0.3-9.3-0.3-15.4
			C279.2,303.7,282.3,301.4,285.1,299.2z"/>
		<path id="XMLID_4_" class="st4" d="M272.2,306.5c-3.1,1.1-6.2,2-10.1,2.5c7,10.9-1.7,29.7-24.1,35.1c-1.9,0.5-3.9,0.7-5.8,0.7
			c-19.4,0-39-21.5-29.6-35.8c-3.6-0.6-6.7-1.4-9.8-2.5c-0.6,23-0.6,31.4-0.8,33.7c12.9,4.1,26.5,6.1,40.2,6.1
			c13.8,0,27.7-2,40.9-6.1C272.8,337.9,272.8,329.5,272.2,306.5z"/>
		<path id="XMLID_5_" class="st3" d="M277.8,148.2c8.4,14.9,18.2,30,34.5,33.1c-9.5,8.7-27.5,14.3-46-3.6
			c-3.6-3.9-7.3-7.9-10.7-12.1c-1.1-1.4-3.1,0.6-2,2c5.9,7,11.8,14.3,19.6,19.4c0,0,0,0.3,0,0.6c0,0,6.2,20.5-1.4,44.3
			c-4.5-2.8-10.4-4.2-16.6-3.4c-0.6-6.2-9.3-11.2-23-10.4c-14.3-0.8-22.2,4.2-22.7,10.4c-4.5-0.6-8.7,0-12.3,1.1
			c1.4-8.7,5.1-51.1,36.2-76.1c12.3-10.1,26.7-14.6,36.5-14.3C273.3,139.2,273.9,141.2,277.8,148.2z"/>
		<path id="XMLID_2_" class="st0" d="M247.8,254c0.8-1.7,3.4-0.3,2.5,1.4c-6.7,12.9-28.9,12.9-35.6,0c-0.8-1.7,1.7-3.1,2.5-1.4
			C223.1,265.2,241.9,265.2,247.8,254z"/>
	</g>
	<g id="XMLID_49_">
		<path id="XMLID_87_" d="M188.3,116.1c-0.9-9.8-2.3-19.6-4.1-29.5c-1.1,4.1-2.3,8.3-3.7,12.5l-0.3-0.1l0.1,0.3l-8.6,5.1
			c-1.8-6.8-4.1-13.5-6.8-20c-1,9.9-2.6,20.2-4.7,30.8l-9.5-0.7c3.3-16.8,5.3-34.3,5.9-52.6l9.9,0.9v0.7c3.2,6,6.1,12.4,8.7,19.4
			c1.9-7.8,3.2-15.9,4.1-24.4l9.3,2.7l0.3-0.2c4.1,15.7,7,33,8.8,51.8L188.3,116.1z"/>
		<path id="XMLID_89_" d="M215.1,115.2c-3.1,0-5.8-1.3-7.8-4c-2.1-2.7-3.6-6.1-4.6-10.3c-1-4.2-1.5-8.6-1.5-13.2
			c0-6.4,0.9-12.3,2.8-17.8c2.4-6.9,6-10.3,10.8-10.3c2.6,0,4.9,0.9,6.8,2.8c2,1.9,3.6,4.1,5,6.8c1.4,2.7,2.5,5.4,3.3,8.1
			c0.8,2.7,1.5,5,1.9,6.8l0.6,2.8l-21.9,4.4l0.3,1.9c0.2,1.3,0.5,2.9,0.9,4.6c0.4,1.7,1.1,3.3,1.9,4.6c0.8,1.4,1.9,2.2,3.2,2.5
			c1.1,0,2-0.7,2.7-2c0.7-1.3,1.3-2.9,1.7-4.6c0.4-1.7,0.7-3.2,0.9-4.6l0.3-1.9l10.1-0.2v0.5c0,3.8-0.7,7.6-2.1,11.4
			c-2.3,6.1-6.5,9.9-12.7,11.5C216.7,115.1,215.9,115.2,215.1,115.2z M211.8,82.5l8.4-2.7l-0.3-1.1c-0.3-0.8-0.6-1.7-1.1-2.6
			c-0.4-1-0.9-1.8-1.3-2.6c-0.5-0.8-0.9-1.1-1.4-1.1c-0.8,0-1.5,0.3-2.1,1c-0.5,0.7-0.9,1.5-1.2,2.5c-0.3,1-0.5,2-0.6,3
			c-0.1,1-0.2,1.8-0.2,2.5L211.8,82.5z"/>
		<path id="XMLID_92_" d="M248.9,115.9l-11.7-0.1v-5.5c0-5.3,0.1-10.7,0.4-16.1h-0.5l0.6-1.3c0.6-10,1.8-20.3,3.5-31l5-0.1l-0.1-0.2
			l0.3-0.1l2.4,0.3l3.8-0.1l-0.1,0.8c3.8,0.7,7.5,2,11.3,4c4.2,2.2,6.4,5.5,6.5,9.6c0,3-0.8,5.6-2.3,7.7c-1.5,2.1-3.5,3.8-5.9,5.1
			c-2.4,1.3-4.9,2.4-7.6,3.1c4.7,4.6,10.5,8.7,17.3,12.6l-8.4,7.4c-5.5-3.4-10.3-7.1-14.4-11.3L248.9,115.9z M249.7,85.2
			c5.9-1.5,8.9-3.8,8.9-6.9c0-0.4-0.1-0.8-0.2-1.3c-0.7-2.2-3.2-3.6-7.4-4.1C250.5,76.9,250.1,81,249.7,85.2z"/>
		<path id="XMLID_95_" d="M287.3,115.9l-11.7-0.1v-5.5c0-5.3,0.1-10.7,0.4-16.1h-0.5l0.6-1.3c0.6-10,1.8-20.3,3.5-31l5-0.1l-0.1-0.2
			l0.3-0.1l2.4,0.3l3.8-0.1l-0.1,0.8c3.8,0.7,7.5,2,11.3,4c4.2,2.2,6.4,5.5,6.5,9.6c0,3-0.8,5.6-2.3,7.7c-1.5,2.1-3.5,3.8-5.9,5.1
			c-2.4,1.3-4.9,2.4-7.6,3.1c4.7,4.6,10.5,8.7,17.3,12.6l-8.4,7.4c-5.5-3.4-10.3-7.1-14.4-11.3L287.3,115.9z M288.1,85.2
			c5.9-1.5,8.9-3.8,8.9-6.9c0-0.4-0.1-0.8-0.2-1.3c-0.7-2.2-3.2-3.6-7.4-4.1C288.9,76.9,288.5,81,288.1,85.2z"/>
		<path id="XMLID_98_" d="M328.6,115.7l-10.2-3c2.3-5.2,4.5-10.5,6.7-15.9c-4.4-12.8-9.9-25.3-16.5-37.7l9.6-5.3
			c4.6,8.5,8.7,17.7,12.6,27.6c3-8.8,5.7-17.8,8.3-27.1l10.5,3.3c-3.5,12.9-8,26.1-13.2,39.8l0.2,0.7l-0.6,0.3
			C333.5,104.1,331.1,109.8,328.6,115.7z"/>
	</g>
	<g id="XMLID_50_">
		<path id="XMLID_55_" d="M90.6,451.1c-5.3-0.3-9.2-3.1-11.7-8.6c-2.4-5.4-3.7-12.4-3.7-20.8c0-8.1,1.1-15.9,3.3-23.4
			c2.2-7.5,5.1-12.7,8.9-15.6c3.2-2.1,6.1-3.2,8.7-3.2c2.6,0,5,0.9,7,2.6c2,1.7,3.7,3.8,5.1,6.2c1.4,2.4,2.5,4.9,3.4,7.4
			c0.9,2.5,1.5,4.6,1.9,6.2l0.6,2.6l-11.4,6.6l-0.3-2c-0.2-1.3-0.6-2.9-1.1-4.6c-0.5-1.7-1.2-3.2-2.1-4.6c-0.9-1.3-2.1-2-3.5-2
			c-0.8,0-1.7,0.3-2.6,0.8c-1.3,1-2.5,4-3.5,8.9c-1,4.9-1.5,9.9-1.5,15.1c0,3.9,0.4,7.2,1.2,10.1c0.8,2.8,2.2,4.3,4.1,4.3
			c1.3,0,2.5-0.8,3.5-2.5c1.1-1.7,2-3.6,2.8-5.7c0.8-2.1,1.4-4,1.9-5.7l0.6-2.4l12.1,2.5l-0.6,2.9c-0.5,1.9-1.2,4.2-2.2,6.9
			c-1,2.8-2.4,5.5-4.2,8.3c-1.8,2.8-4,5.1-6.7,7C97.7,450.2,94.4,451.1,90.6,451.1z"/>
		<path id="XMLID_67_" d="M153.9,451.5l-10.9-1.7l0.3-2.3c0.1-1.5,0.2-3.3,0.4-5.4c0.1-2.1,0.2-3.9,0.2-5.6c0-1.7-0.1-2.9-0.4-3.4
			c-0.3-0.3-1.1-0.4-2.2-0.4c-1.1,0-2.4,0.1-3.9,0.3c-1.5,0.2-2.7,0.3-3.8,0.5l-1.7,0.3l1.1,17.6h-11.1V450
			c0-18.7-1.5-37.4-4.6-56.1h13.2l1.5,27.3L143,422c0.3-2.4,0.5-4.9,0.5-7.3c0-3.7-0.3-8.1-0.8-13.2l-0.2-1.9l12.1,1
			c0.3,0.5,0.5,2.8,0.7,6.9c0.2,4.1,0.3,8.9,0.3,14.6C155.6,434.2,155.1,444.1,153.9,451.5z"/>
		<path id="XMLID_70_" d="M174.7,451l-11.7-0.1v-5.5c0-5.3,0.1-10.7,0.4-16.1h-0.5l0.6-1.3c0.6-10,1.8-20.3,3.5-31l5-0.1l-0.1-0.2
			l0.3-0.1l2.4,0.3l3.8-0.1l-0.1,0.8c3.8,0.7,7.5,2,11.3,4c4.2,2.3,6.4,5.5,6.5,9.6c0,3-0.8,5.6-2.3,7.7c-1.5,2.1-3.5,3.8-5.9,5.1
			c-2.4,1.3-4.9,2.4-7.6,3.1c4.7,4.6,10.5,8.7,17.3,12.6l-8.4,7.4c-5.5-3.4-10.3-7.1-14.4-11.3L174.7,451z M175.5,420.3
			c5.9-1.5,8.9-3.8,8.9-6.9c0-0.4-0.1-0.8-0.2-1.3c-0.7-2.2-3.2-3.6-7.4-4.1C176.3,412,175.9,416.1,175.5,420.3z"/>
		<path id="XMLID_74_" d="M202.5,450.6c-0.8-8-1.2-16.3-1.2-24.9c0-8.3,0.4-17,1.2-25.9l11.4-0.8c-0.7,7.6-1.1,15.3-1.1,23.2
			c0,9.1,0.5,18.4,1.4,27.8L202.5,450.6z"/>
		<path id="XMLID_76_" d="M225.6,449.2l-6.3-10.9l2.9-0.8c1.9-0.6,4-1.3,6.4-2.3c2.4-1,4.5-2.1,6.4-3.5c1.9-1.3,2.8-2.9,2.8-4.6
			c0-2-1.7-4.1-5.1-6.2c-4.5-2.8-7.8-5.7-9.9-8.6c-2.1-3-3.1-5.7-3.1-8.3c0-2.5,0.8-4.6,2.5-6.5c1.7-1.9,4-3.2,6.9-4
			c2.5-0.7,4.9-1,7.3-1c3.2,0,6.2,0.4,9,1.1c2.8,0.7,5,1.4,6.8,2.1l2.5,1.1l-3.4,11.6l-2-0.9c-1.3-0.6-3-1.2-4.9-1.8
			c-1.9-0.6-3.7-0.9-5.3-0.9c-2.6,0-4,1.1-4.1,3.2c0,1.1,0.5,2.2,1.6,3.1c1.1,0.9,2.4,1.9,4,2.8c2.5,1.5,5,3.4,7.3,5.9
			c2.3,2.4,3.6,5.9,3.8,10.2c0,2.7-0.9,5.1-2.7,7.1c-1.8,2.1-3.9,3.8-6.5,5.4c-2.6,1.5-5.1,2.8-7.7,3.8c-2.6,1-4.8,1.7-6.5,2.2
			L225.6,449.2z"/>
		<path id="XMLID_78_" d="M269.9,449.3c-0.7-5.9-1-12.2-1-18.8c0-6.6,0.4-13.7,1.2-21.2c-3.4,0-6.2,0.3-8.5,0.8l-3.5,0.8l-3-9.6
			c9.9-3.4,19.8-5.1,29.7-5.1c4.5,0,8.9,0.4,13.1,1.1l-2.9,10.5c-2.4-0.6-5.2-0.9-8.4-0.9l-3,0.1l-0.1,0.3
			c-0.6,1.3-1.1,4.8-1.7,10.5c-0.6,6.1-0.9,11.9-0.9,17.4c0,3.5,0.1,6.5,0.2,8.9l0.2,3.8L269.9,449.3z"/>
		<path id="XMLID_80_" d="M336.3,451.2c-0.9-9.8-2.3-19.6-4.1-29.5c-1.1,4.1-2.3,8.3-3.7,12.5l-0.3-0.1l0.1,0.3l-8.6,5.1
			c-1.8-6.8-4.1-13.5-6.8-20c-1,9.9-2.6,20.2-4.7,30.8l-9.5-0.7c3.3-16.8,5.3-34.3,5.9-52.5l9.9,0.9v0.7c3.2,6,6.1,12.4,8.7,19.4
			c1.9-7.8,3.2-15.9,4.1-24.4l9.3,2.7l0.3-0.2c4.1,15.7,7,33,8.8,51.8L336.3,451.2z"/>
		<path id="XMLID_82_" d="M355.3,450l-9.9-2.6l2.4-6.7l0.7-9.2l2.6-0.3c4.1-12.5,7.6-25.6,10.5-39.2l10.1,2.9l-0.2,0.8l0.7-0.3
			c6.2,14.9,11.4,31.5,15.6,49.9l-9.3,4.6l-1.3-5.9c-6.5-1.1-12.9-1.6-19.1-1.6C357.3,445,356.4,447.5,355.3,450z M374,431.8
			c-1.9-6.4-4-12.8-6.3-19.2c-1.6,6.1-3.5,12.2-5.6,18.5C366.2,431.1,370.2,431.4,374,431.8z"/>
		<path id="XMLID_85_" d="M395.7,449.2l-6.3-10.9l2.9-0.8c1.9-0.6,4-1.3,6.4-2.3c2.4-1,4.5-2.1,6.4-3.5c1.9-1.3,2.8-2.9,2.8-4.6
			c0-2-1.7-4.1-5.1-6.2c-4.5-2.8-7.8-5.7-9.9-8.6c-2.1-3-3.1-5.7-3.1-8.3c0-2.5,0.8-4.6,2.5-6.5c1.7-1.9,4-3.2,6.9-4
			c2.5-0.7,4.9-1,7.3-1c3.2,0,6.2,0.4,9,1.1c2.8,0.7,5,1.4,6.8,2.1l2.5,1.1l-3.4,11.6l-2-0.9c-1.3-0.6-3-1.2-4.9-1.8
			c-1.9-0.6-3.7-0.9-5.3-0.9c-2.6,0-4,1.1-4.1,3.2c0,1.1,0.5,2.2,1.6,3.1c1.1,0.9,2.4,1.9,4,2.8c2.5,1.5,5,3.4,7.3,5.9
			c2.3,2.4,3.6,5.9,3.8,10.2c0,2.7-0.9,5.1-2.7,7.1c-1.8,2.1-3.9,3.8-6.5,5.4c-2.6,1.5-5.1,2.8-7.7,3.8c-2.6,1-4.8,1.7-6.5,2.2
			L395.7,449.2z"/>
	</g>
	<path id="XMLID_54_" class="st5" d="M358.9,355.6c0.3,0.1,0.6,0.1,0.9,0.2C359.5,355.7,359.2,355.6,358.9,355.6z"/>
	<path id="XMLID_60_" class="st5" d="M360,355.8c0.3,0,0.6,0.1,0.8,0.1C360.6,355.9,360.3,355.8,360,355.8z"/>
	<path id="XMLID_61_" class="st5" d="M362.6,356L362.6,356c-0.5,0-1.1,0-1.7-0.1C361.5,356,362.1,356,362.6,356z"/>
	<path id="XMLID_62_" class="st5" d="M369.5,355.6c0.3,0,0.6-0.1,0.9-0.1C370,355.5,369.7,355.5,369.5,355.6z"/>
	<path id="XMLID_63_" class="st5" d="M371.4,355.2c-0.3,0.1-0.6,0.1-0.9,0.2C370.8,355.4,371.1,355.3,371.4,355.2z"/>
	<path id="XMLID_64_" class="st6" d="M370.3,355.4c-0.3,0.1-0.6,0.1-0.9,0.1c0,0,0,0,0,0c-1,0.3-2.2,0.5-3.5,0.6
		c-1.2,0.1-2.3,0-3.4-0.2c-0.5,0-1.1,0-1.7-0.1c0,0,0,0,0,0c-0.3,0-0.6-0.1-0.8-0.1c-0.1,0-0.1,0-0.2,0c-0.3-0.1-0.6-0.1-0.9-0.2
		v18.3h12.5v-18.6c-0.3,0.1-0.6,0.1-0.9,0.2C370.5,355.4,370.4,355.4,370.3,355.4z"/>
	<path id="XMLID_66_" class="st7" d="M359.8,355.8c0.1,0,0.1,0,0.2,0C360,355.8,359.9,355.8,359.8,355.8z"/>
	<path id="XMLID_53_" class="st7" d="M425.1,334.7c-0.9-2.8-3.4-6.6-5.3-8c-2-1.5-7.5-5.1-8.9-5.8c-3.4-1.7-5.3-3.5-6.9-6.7
		c-0.9-1.8-0.6-2.2,0.9-1.2c2.5,1.6,5.2,1.9,8,1.1c5.9-1.8,7.7-4.7,6.6-10.9c-1.2-6.7-4.5-11-10.6-14c-1.7-0.8-3.4-1.5-5.1-1.9
		c-1.4-0.3-2.9-0.8-3.5-1.1c-1.4-0.7-3.5-2.8-4.5-4.6c-0.5-0.8-1.2-1.9-1.6-2.5c-1-1.3-1.4-2-1.1-2.2c0.1-0.1,0.9,0.1,1.7,0.4
		c2.4,0.9,4.7,0.9,6.8,0.2c2.1-0.7,3.9-2,4.4-3.2c0.6-1.3,1-3.5,1-5.2c0-2.9-1.6-6.4-4.1-8.7c-2.8-2.6-5.1-3.8-8.9-4.4
		c-2.7-0.5-5.3-1.3-6.6-2.2c-2.7-1.7-3.6-2.9-4.4-5.5c-0.2-0.8-0.6-1.9-0.8-2.4c-0.5-1.1-0.2-1.3,0.8-0.8c1.2,0.6,3.2,0.7,4.2,0.2
		c1.5-0.8,3.3-4,3.3-5.9c0-1.7-2.4-7.6-3.6-8.8c-1-1.1-3.2-2.3-5.2-3c-1.1-0.4-3.4-1.4-5.1-2.2c-3.6-1.7-4.8-2.8-5.8-5
		c-0.9-2.1-1.5-5.9-1.7-11.8c-0.2-4.6-0.3-5.2-1.4-7.4c-0.6-1.1-1.6-1.7-3-1.7c-0.7,0-1.1,0.2-1.6,0.8c-1.7,1.8-2.2,3.6-2.4,8.9
		c-0.2,5.1-0.7,9.1-1.4,11c-0.6,1.6-2.1,3.6-3.3,4.1c-2.2,1.1-6.7,3.2-8.1,3.7c-1.9,0.6-4,1.9-4.9,2.9c-0.9,0.9-2.1,3.5-3.1,6.3
		c-0.7,2.2-0.8,2.4-0.5,3.6c0.4,1.7,2.1,4.4,3.2,4.9c1.1,0.5,2.6,0.5,3.9-0.1c1.3-0.6,1.6-0.3,1.1,0.7c-0.2,0.4-0.6,1.5-0.8,2.4
		c-0.6,2-1.1,3-2.4,4.1c-2,1.8-4.2,2.7-8.4,3.6c-3.5,0.7-4.5,1.1-6.5,2.4c-2.5,1.6-4.3,3.6-5.4,5.8c-1.3,2.6-1.6,4.2-1.2,6.7
		c0.4,2.9,1,4.1,2.6,5.2c2.8,2,6,2.5,9.3,1.3c2.7-0.9,2.8-0.9,1.3,1.1c-0.6,0.7-1.4,2-1.8,2.8c-1.1,1.9-3.1,4.1-4.5,4.8
		c-0.6,0.3-2,0.8-3.2,1.1c-4.7,1.2-8.4,3.1-11.4,6.2c-2.5,2.5-4.1,5.9-4.9,10.2c-1,5.8,0.7,8.6,6.5,10.5c0.8,0.3,1.9,0.6,2.4,0.6
		c1.2,0.2,3.5-0.4,5.4-1.4c2-1.1,2.3-0.8,1.3,1.2c-1.6,3.2-3.3,4.8-6.8,6.6c-1,0.5-3.5,2.1-5.5,3.5c-4.5,3.1-6,4.6-7.6,7.9
		c-1.3,2.6-1.7,4-2.3,8.1c-0.4,2.5-0.4,2.8,0,4.2c0.5,1.9,1.1,3,3,5.1c1.6,1.8,3.7,3,7.4,4.1c2.1,0.6,2.1,0.6,6.1,0.4
		c3.9-0.2,4-0.2,5.3-1c0.7-0.4,1.9-1.4,2.5-2.2c0.6-0.7,1.4-1.4,1.6-1.4c0.3,0,0.7,0.6,1.2,1.7c1,2.1,2.7,4,4,4.6l0,0
		c2.6,1.3,8.2-0.1,11-2.7c0.7-0.6,1.9-2.1,2.8-3.3c2-2.6,2.5-2.8,2.9-0.8c0.2,1,1.7,3.3,2.9,4.4c0.7,0.7,1.4,1,3,1.5
		c0.5,0.1,0.9,0.2,1.4,0.3c0.3,0.1,0.6,0.1,0.9,0.2c0.1,0,0.1,0,0.2,0c0.3,0,0.6,0.1,0.8,0.1c0,0,0,0,0,0c0.6,0.1,1.2,0.1,1.7,0.1h0
		c1.1,0.2,2.2,0.3,3.4,0.2c1.3-0.1,2.4-0.3,3.5-0.6c0,0,0,0,0,0c0.3,0,0.6-0.1,0.9-0.1c0.1,0,0.1,0,0.2,0c0.3-0.1,0.6-0.1,0.9-0.2
		c0.5-0.1,1-0.2,1.5-0.4c2.4-0.7,4.6-3.1,5.5-5.8c0.2-0.6,0.5-1.1,0.7-1.2c0.3,0,1,0.7,2.2,2.2c2.3,2.9,3.7,4.2,5.2,5
		c2.5,1.2,6.1,1.8,7.9,1.3c1.4-0.4,3.6-2.6,4.7-4.8c0.4-0.9,0.9-1.7,1.1-1.8c0.1-0.1,1,0.6,2,1.6c2.5,2.5,3.1,2.7,7.2,3
		c3.9,0.3,5,0.2,7.7-0.8c3.2-1.1,4.6-2,6.3-3.8c1.8-2,2.9-4,3.1-5.8C426.6,342.2,425.8,336.9,425.1,334.7z"/>
	<path id="XMLID_69_" class="st7" d="M370.3,355.4c0.1,0,0.1,0,0.2,0C370.5,355.4,370.4,355.4,370.3,355.4z"/>
	<path id="XMLID_71_" class="st7" d="M360.9,355.9C360.9,355.9,360.9,355.9,360.9,355.9C360.9,355.9,360.9,355.9,360.9,355.9z"/>
</g>
</svg>
